PathFileType	4	(X/Y/Z)	C:/Users/beibeiliu/ov580/test_trc\sequence.29_training_dense_right.trc
DataRate	CameraRate	NumFrames	NumMarkers	Units	OrigDataRate	OrigDataStartFrame	OrigNumFrames
120	120	8	19	mm	120	50	396
Frame#	Time	ThumbCMC			ThumbMCP			ThumbIP			ThumbTip			IndexMCP			IndexPIP			IndexTip			MiddleMCP			MiddlePIP			MiddleTip			RingMCP			RingPIP			RingTip			PinkyMCP			PinkyPIP			PinkyTip			BackHand1			BackHand2			BackHand3	
		X0	Y0	Z0	X1	Y1	Z1	X2	Y2	Z2	X3	Y3	Z3	X4	Y4	Z4	X5	Y5	Z5	X6	Y6	Z6	X7	Y7	Z7	X8	Y8	Z8	X9	Y9	Z9	X10	Y10	Z10	X11	Y11	Z11	X12	Y12	Z12	X13	Y13	Z13	X14	Y14	Z14	X15	Y15	Z15	X16	Y16	Z16	X17	Y17	Z17	X18	Y18	Z18	
49	0.408333	237.031	-12.4216	38.3049	251.21	-11.2544	12.9242	260.293	-11.7446	-3.79894	266.614	-14.2029	-21.8658	222.702	-23.4877	-26.3979	220.584	-18.1068	-52.5489	218.515	-10.4496	-74.203	211.663	-1.76908	-24.8262	215.63	29.597	-15.5904	220.931	17.7045	11.1991	194.977	11.2855	-16.9384	209.68	28.7837	-4.36987	210.189	12.4892	22.5953	182.97	9.98029	-7.72207	193.853	30.578	3.12536	205.168	19.5568	22.0326	187.455	-24.3789	19.6962	192.078	-24.551	46.0377	214.772	-32.2433	33.6	
50	0.416667	241.495	-12.7362	36.637	254.585	-8.89289	15.2412	260.595	-11.3853	-3.35877	269.881	-15.0475	-21.4656	225.552	-25.056	-28.7726	223.639	-19.6904	-51.1791	220.944	-11.7617	-71.6158	212.858	2.7083	-27.9669	219.81	27.5475	-19.7926	218.136	17.964	12.1921	194.928	10.9982	-17.2078	208.035	29.8821	-4.29497	209.171	14.1436	22.6926	183.948	12.2268	-7.90317	199.196	28.9248	0.792613	201.995	19.7786	24.3416	191.308	-25.009	17.0262	192.571	-26.446	45.14	214.743	-30.1984	34.1523	
51	0.425	243.31	-10.5035	40.1762	251.829	-10.076	13.6252	258.61	-11.0534	-3.95701	269.212	-15.1613	-20.9902	224.618	-24.4238	-25.2603	222.756	-18.6018	-47.3743	224.052	-11.9015	-72.4439	211.58	-1.00259	-25.0956	219.29	27.722	-20.6762	224.437	16.549	11.9403	194.105	9.90956	-16.4838	211.84	29.3808	-2.01399	210.268	14.5099	22.5589	184.972	13.0098	-8.93775	194.46	30.4276	1.17637	204.903	16.6537	25.2941	191.22	-24.949	17.5093	189.673	-24.5545	47.0166	217.585	-31.6987	33.6059	
52	0.433333	242.878	-11.5099	39.0949	254.133	-8.07957	14.9479	258.311	-11.634	-5.5797	271.041	-13.6368	-18.1633	224.539	-22.8019	-29.1538	225.791	-18.9953	-51.6533	219.876	-9.39086	-74.7261	210.951	2.06423	-27.3148	220.88	27.6134	-20.1732	220.462	17.6898	11.9349	198.645	11.1572	-17.7166	209.705	29.4517	-2.90047	210.892	14.2086	22.4697	184.942	11.1127	-8.52192	198.143	29.3301	1.20395	205.807	17.6863	23.3085	189.338	-24.8099	19.0992	194.8	-24.1548	49.5625	216.072	-29.4319	33.0676	
53	0.441667	242.431	-10.8162	39.7858	255.809	-7.89253	16.5715	261.08	-9.97803	-2.42306	272.972	-14.9037	-20.5315	225.799	-23.2267	-25.6661	222.756	-18.3825	-47.0452	220.055	-9.71092	-69.7756	213.867	-0.00811187	-26.1743	218.898	30.334	-16.7341	219.875	19.0973	12.1798	196.654	12.8097	-17.7171	207.805	30.7029	-2.89224	214.272	12.3714	20.9066	182.362	11.6231	-7.7222	193.978	30.8208	2.26156	206.982	18.5148	22.2246	190.141	-25.2209	21.4886	194.27	-25.2354	48.1188	219.389	-31.7653	32.7439	
54	0.45	239.468	-9.8492	39.4385	251.566	-6.93136	17.5415	260.903	-12.0827	-4.82713	271.011	-12.8855	-16.9499	223.705	-22.147	-29.9729	223.497	-16.9329	-52.8632	221.154	-9.19958	-71.2216	212.927	2.95431	-27.3629	219.821	30.45	-16.0075	224.154	19.5659	10.4804	199.728	12.7881	-17.4084	206.917	31.6713	-2.13236	212.882	16.3069	20.6191	184.917	15.2535	-9.08511	198.105	29.9868	3.96459	204.725	14.5677	26.5381	192.863	-23.8637	17.8489	192.71	-23.9352	47.9818	218.864	-31.7926	29.5982	
55	0.458333	238.708	-10.6417	38.0263	250.923	-9.85302	14.0545	261.36	-11.4212	-2.8706	270.651	-15.3541	-21.2731	226.024	-22.2046	-29.2589	221.752	-15.9889	-50.8892	220.563	-8.72218	-70.5833	212.027	2.50741	-26.8099	219.651	29.3999	-18.4503	222.13	16.0071	12.3083	195.484	11.1591	-16.334	213.035	29.3614	-1.34801	210.785	15.2234	22.7328	184.393	12.7666	-8.20683	197.11	31.4001	5.17147	207.885	15.8219	23.0423	190.658	-24.7375	17.4862	193.335	-23.2699	48.0061	220.893	-31.0982	29.8895	
56	0.466667	239.603	-11.4716	37.814	252.766	-8.57313	14.2121	260.366	-13.0053	-4.74749	272.018	-15.3633	-19.501	223.894	-21.4927	-29.1562	224.726	-16.8736	-48.6374	221.809	-7.94553	-73.0526	212.107	1.83923	-26.5167	217.438	29.1506	-20.0195	223.26	18.4502	10.5633	199.192	9.65813	-16.4417	208.681	31.9276	-1.08158	210.456	16.6124	21.622	186.696	12.6159	-8.73473	196.761	31.8226	4.02147	203.213	16.7994	24.8987	190.093	-23.0869	20.0844	193.707	-24.7615	47.1901	217.541	-30.1807	29.8748	
